# xmcd
#
# Track frame offsets: 
#        150
#        674
#        17290
#        36023
#        54543
#        71933
#        86958
#        110961
#        126488
#        144797
#        163995
#        188977
#        209782
#        225082
#        243189
#        261735
#        281613
#        293632
#        308689
#
# Disc length: 4403 seconds
#
# Revision: 0
# Processed by: cddbd v1.5.2PL0 Copyright (c) Steve Scherf et al.
# Submitted via: ExactAudioCopy v0.99pb4
#
DISCID=1c113113
DTITLE=Various Artist - prevue promo 1045A-1
DYEAR=2000
DGENRE=pop
TTITLE0=blank - data
TTITLE1=Gabrielle - Rise 
TTITLE2=Dave Koz Feat.  Montell Jordan - Careless Whisper 
TTITLE3=Settie - I Know A Girl 
TTITLE4=K.D. Lang - Summerfling
TTITLE5=Tarsha Vega - Be Ya Self 
TTITLE6=Toto - Melanie
TTITLE7=Wamdue Project - King Of My Castle 
TTITLE8=Boyz II Men - Pass You By 
TTITLE9=Toni Braxton Feat.  Dr. Dre - Just Be A Man About It 
TTITLE10=Edwin McCain - Promise Of You 
TTITLE11=Little Feat - Rag Mama Rag 
TTITLE12=Tara MacLean - Divided 
TTITLE13=Jeremy  Kay - Only One 
TTITLE14=Wood - Could I Be 
TTITLE15=David Gray - Babylon 
TTITLE16=Tbe Union Underground - Tum Me On "Mr. Deadman
TTITLE17=Nash Kato - Zooey Suicide
TTITLE18=Gov't Mule - Fallen Down 
EXTD=
EXTT0=
EXTT1=
EXTT2=
EXTT3=
EXTT4=
EXTT5=
EXTT6=
EXTT7=
EXTT8=
EXTT9=
EXTT10=
EXTT11=
EXTT12=
EXTT13=
EXTT14=
EXTT15=
EXTT16=
EXTT17=
EXTT18=
PLAYORDER=
